<?xml version="1.0" encoding="utf-8"?>
<!-- Generator: Adobe Illustrator 22.0.1, SVG Export Plug-In . SVG Version: 6.00 Build 0)  -->
<svg version="1.1" id="Слой_1" xmlns="http://www.w3.org/2000/svg" xmlns:xlink="http://www.w3.org/1999/xlink" x="0px" y="0px"
	 viewBox="0 0 141.7 141.7" style="enable-background:new 0 0 141.7 141.7;" xml:space="preserve">
<style type="text/css">
	.st0{fill:#272525;}
</style>
<g id="XMLID_6198_">
	<path id="XMLID_6199_" class="st0" d="M74.7,42l-3.3,8.4L70,54.1l-3.3,8.4l-2.8,7.2l-4.1,10.4l-1.3,3.4c-2.8,7.1,0.8,15.2,7.9,18
		l27.8,10.8c-27,0-54,0-81,0c-3.5,0-3.5,5.4,0,5.4c37.9,0,75.8,0,113.7,0c3.5,0,3.5-5.4,0-5.4c-5,0-10,0-14.9,0
		c2.1-1.5,3.7-3.6,4.7-6.2l1.3-3.4l0.3,0.1l6.9-17.7l1.1-2.8l2.2-5.6l1.4-3.7l3.3-8.4l5-12.8L79.7,29.2L74.7,42z M113.7,105
		c-2.1,5.5-8.3,8.2-13.8,6.1L67.7,98.5c-5.5-2.1-8.2-8.3-6.1-13.8l1.3-3.4l52.1,20.3L113.7,105z M116.5,98.8L64.1,78.3l2.9-7.4
		l2.8-7.2l52.4,20.4L116.5,98.8z M123.4,81.1L71,60.7l0.9-2.3l52.4,20.4L123.4,81.1z M125.5,75.7L73.1,55.3l1.4-3.7L126.9,72
		L125.5,75.7z M128.1,69L75.7,48.6l0.9-2.3L129,66.7L128.1,69z M134,53.8l-3.8,9.8L77.8,43.2l3.8-9.8L134,53.8z"/>
</g>
</svg>
