<?xml version="1.0" encoding="utf-8"?>
<!-- Generator: Adobe Illustrator 22.0.1, SVG Export Plug-In . SVG Version: 6.00 Build 0)  -->
<svg version="1.1" id="Слой_1" xmlns="http://www.w3.org/2000/svg" xmlns:xlink="http://www.w3.org/1999/xlink" x="0px" y="0px"
	 viewBox="0 0 141.7 141.7" style="enable-background:new 0 0 141.7 141.7;" xml:space="preserve">
<style type="text/css">
	.st0{fill:#272525;}
</style>
<g id="XMLID_6179_">
	<path id="XMLID_6195_" class="st0" d="M12.9,60.7l-0.2,0.5c-3.7,19.3,2.4,39.1,16.2,52.9c10.6,10.6,24.8,16.8,39.8,17.3
		c0.7,0,1.3,0,2,0c15.6,0,30.8-6.2,41.8-17.3c11.2-11.2,17.3-26,17.3-41.8c0-15.8-6.2-30.6-17.3-41.8
		c-11.7-11.7-27.2-17.8-43.8-17.2c-3.3,0.1-6.6,0.5-9.7,1.1l-0.3,0.1c-3.3,1.1-4.7,3.1-5.3,4.6c-1.3,3.2,0.1,6.6,1.1,8.5l0.2,0.4
		c0.1,0.1,0.1,0.2,0.2,0.4l0.2,0.3c4.1,8.1,2.5,17.7-3.9,24.2c-6.7,6.6-17,8-25.2,3.3l-3.9-2.3v1c-1.3-0.1-2.6,0-3.7,0.4
		C14.9,56.4,13.3,59.7,12.9,60.7z M17.8,62.5c0.3-0.6,1.1-1.9,2.3-2.4c0.9-0.3,2-0.2,3.4,0.5l0.6,0.3c0.4,0.2,0.8,0.4,1.2,0.6
		l3.2,1.6l-0.1-0.4c9.2,2.9,19.4,0.6,26.5-6.4c7.7-7.7,9.8-19.2,5.4-29.1l0.2-0.3l-1-1.3c-0.1-0.2-0.2-0.3-0.3-0.5L59,24.9
		c-0.8-1.6-1.1-3.1-0.8-4c0.2-0.6,0.9-1.1,2-1.5c2.8-0.6,5.7-0.9,8.7-1c15.1-0.5,29.3,5.1,39.9,15.7c10.2,10.2,15.8,23.7,15.8,38.1
		c0,14.4-5.6,27.9-15.8,38.1c-10.7,10.7-24.9,16.3-40,15.7c-13.7-0.5-26.6-6.1-36.3-15.7C20.1,97.9,14.6,80,17.8,62.5z"/>
	<path id="XMLID_6192_" class="st0" d="M38,94.4c3.2-0.9,5.9-2.9,7.5-5.8c1.7-2.9,2.1-6.2,1.2-9.4c-1.8-6.6-8.6-10.5-15.2-8.8h0
		c-3.2,0.9-5.9,2.9-7.5,5.8c-1.7,2.9-2.1,6.2-1.2,9.4c0.9,3.2,2.9,5.9,5.8,7.5c1.9,1.1,4,1.7,6.2,1.7C35.9,94.9,36.9,94.7,38,94.4z
		 M29.9,90.9c-2.3-1.3-3.9-3.4-4.6-5.9c-0.7-2.5-0.3-5.2,1-7.4c1.3-2.3,3.4-3.9,5.9-4.6c5.2-1.4,10.6,1.7,12,6.9
		c0.7,2.5,0.3,5.2-1,7.4c-1.3,2.3-3.4,3.9-5.9,4.6C34.8,92.6,32.2,92.2,29.9,90.9z"/>
	<path id="XMLID_6189_" class="st0" d="M48.7,114c1.7,2.9,4.3,4.9,7.5,5.8c1.1,0.3,2.2,0.4,3.2,0.4c3.1,0,6.1-1.2,8.4-3.3
		c1.7-1.6,2.9-3.6,3.5-5.8c1.2-4.4-0.2-9.1-3.5-12.3c-1.5-1.4-3.3-2.4-5.2-2.9c-6.6-1.8-13.4,2.2-15.2,8.8l0,0
		C46.6,107.7,47.1,111.1,48.7,114z M50,105.2c1.4-5.2,6.8-8.3,12-6.9c1.6,0.4,3,1.2,4.1,2.3c2.7,2.5,3.7,6.2,2.8,9.7
		c-0.5,1.8-1.4,3.4-2.8,4.6c-2.5,2.3-5.9,3.2-9.2,2.3c-2.5-0.7-4.6-2.3-5.9-4.6C49.7,110.4,49.3,107.7,50,105.2z"/>
	<path id="XMLID_6186_" class="st0" d="M93.6,87.7c-3.3,0-6.4,1.3-8.8,3.6c-4.8,4.8-4.8,12.7,0,17.5c2.3,2.3,5.5,3.6,8.8,3.6
		c3.3,0,6.4-1.3,8.8-3.6c2.3-2.3,3.6-5.5,3.6-8.8c0-3.3-1.3-6.4-3.6-8.8C100,89,96.9,87.7,93.6,87.7z M100.5,107
		c-1.8,1.8-4.3,2.9-6.9,2.9c-2.6,0-5.1-1-6.9-2.9c-3.8-3.8-3.8-10,0-13.8c1.8-1.8,4.3-2.9,6.9-2.9c2.6,0,5.1,1,6.9,2.9
		c1.8,1.8,2.9,4.3,2.9,6.9C103.4,102.7,102.4,105.2,100.5,107z"/>
	<path id="XMLID_6183_" class="st0" d="M92.7,70.6c1.5,5.5,6.5,9.2,12,9.2c1.1,0,2.1-0.1,3.2-0.4c6.6-1.8,10.5-8.6,8.8-15.2
		c-1.8-6.6-8.6-10.5-15.2-8.8h0C94.9,57.2,90.9,64,92.7,70.6z M102.1,57.9c5.2-1.4,10.6,1.7,12,6.9c1.4,5.2-1.7,10.6-6.9,12
		c-5.2,1.4-10.6-1.7-12-6.9C93.8,64.7,96.9,59.3,102.1,57.9z"/>
	<path id="XMLID_6180_" class="st0" d="M76.8,53.7c1.1,0.3,2.2,0.4,3.2,0.4c2.1,0,4.3-0.6,6.2-1.7c2.9-1.7,4.9-4.3,5.8-7.5
		c1.8-6.6-2.2-13.4-8.8-15.2c-6.6-1.8-13.4,2.2-15.2,8.8c-0.9,3.2-0.4,6.5,1.2,9.4S73.6,52.8,76.8,53.7z M70.6,39.2
		c1.4-5.2,6.8-8.3,12-6.9c5.2,1.4,8.3,6.8,6.9,12c-0.7,2.5-2.3,4.6-4.6,5.9c-2.3,1.3-4.9,1.7-7.4,1c-2.5-0.7-4.6-2.3-5.9-4.6
		C70.3,44.3,69.9,41.7,70.6,39.2z"/>
</g>
</svg>
