<?xml version="1.0" encoding="utf-8"?>
<!-- Generator: Adobe Illustrator 22.0.1, SVG Export Plug-In . SVG Version: 6.00 Build 0)  -->
<svg version="1.1" id="Слой_1" xmlns="http://www.w3.org/2000/svg" xmlns:xlink="http://www.w3.org/1999/xlink" x="0px" y="0px"
	 viewBox="0 0 141.7 141.7" style="enable-background:new 0 0 141.7 141.7;" xml:space="preserve">
<style type="text/css">
	.st0{fill:#272525;}
</style>
<g id="XMLID_6145_">
	<path id="XMLID_6146_" class="st0" d="M94.9,135.9l1.8,0.3l0.7-1.5c0.4-0.8,8.9-19.2,1.7-33.1c-3.5-6.7-7.5-10.4-12.2-11.5
		c-1.3-0.3-2.6-0.3-3.9-0.2c-0.4-1.3-0.8-2.5-1.2-3.6c-4-11.6-10-24.1-16.9-35.3C42.5,14.5,34.9,5,29.4,7.2l-2.4,0.9l0.5,1
		c-2.9,4.8,2.3,18.5,17.5,52.7c5.3,11.9,12.1,24,19.2,34l1.2,1.6l0,0c0.3,0.4,0.6,0.8,0.9,1.2c-3.5,4.2-4.5,10.2,0.5,19.8
		C73.9,131.9,92.8,135.5,94.9,135.9z M94.7,132.4c-2.2-0.4-8.1-1.9-13.8-5.1c0.3-0.1,0.7-0.4,0.9-1.1c0.5-1.5-1.1-3.2-3.5-5.7
		c-2-2.2-4.8-5.2-4.7-6.9c0-0.3,0.2-0.6,0.5-0.9c1.8-1.5,5.7,2,8.9,4.9c3.4,3,6,5.4,8.1,4.2c2-1.2,1.7-3.7,1.4-5.8
		c-0.4-2.8-0.5-4.6,1.4-5.6c1.4-0.7,2.9-0.5,4.4,0.5C99.5,120.1,95.9,129.7,94.7,132.4z M66.9,91.5L66.9,91.5
		c-6.5-9.4-12.7-20.6-17.6-31.6c-6.9-15.4-19.6-44-17.8-48.3l0,0c5.4,2.3,22.3,29.8,29.7,41.8c6.7,10.9,12.5,23.1,16.4,34.4
		c0.4,1,0.7,2.1,1,3.1c-1.6,0.6-3.2,1.3-4.5,2L74,93c-1.5,0.8-2.9,1.6-4.2,2.6c-0.6-0.8-1.1-1.5-1.7-2.4L66.9,91.5z M76.2,96.9
		c3.3-1.7,5.9-2.5,8.1-2.5c0.6,0,1.2,0.1,1.7,0.2c3.3,0.7,6.3,3.7,9.1,9.1c0.7,1.3,1.2,2.7,1.6,4.2c-1.3-0.2-2.5,0-3.7,0.5
		c-3.5,1.7-3,5.3-2.7,7.9c0.2,1.9,0.4,3.2-0.3,3.6c-0.7,0.3-3.8-2.4-5.4-3.9c-4-3.6-8.5-7.6-11.8-4.9c-0.8,0.7-1.2,1.5-1.3,2.5
		c-0.2,2.7,2.7,5.8,5.3,8.6c0.1,0.1,0.2,0.2,0.2,0.3c-0.7-0.4-1.4-0.8-2.2-0.9c-1.5-1.5-2.9-3.2-3.9-5.1
		C66.5,107.8,66,102.2,76.2,96.9z"/>
</g>
</svg>
